<svg width="150" height="27" viewBox="0 0 150 27" fill="none" xmlns="http://www.w3.org/2000/svg">
<rect x="0.242188" y="13" width="105" height="14" fill="#B66C6E"/>
<path d="M15.4141 2.00391L15.6133 5.87109L15.3438 5.88281C15.2422 5.22656 15.0742 4.68359 14.8398 4.25391C14.6055 3.82422 14.2656 3.44531 13.8203 3.11719C13.4531 2.84375 13.0195 2.65234 12.5195 2.54297C12.0195 2.42578 11.3555 2.36719 10.5273 2.36719H7.84375V9.39844H8.54688C9.25781 9.39844 9.79297 9.35156 10.1523 9.25781C10.5117 9.16406 10.8047 8.99609 11.0312 8.75391C11.25 8.52734 11.4102 8.26172 11.5117 7.95703C11.6211 7.64453 11.7109 7.1875 11.7812 6.58594L12.0508 6.59766L12.0039 12.8789H11.7344C11.6641 12.2773 11.5586 11.793 11.418 11.4258C11.2852 11.0586 11.0977 10.7461 10.8555 10.4883C10.6211 10.2383 10.3164 10.0547 9.94141 9.9375C9.56641 9.82031 9.08984 9.76172 8.51172 9.76172H7.84375V12.4453C7.84375 13.5156 7.87109 14.2969 7.92578 14.7891C7.98047 15.2734 8.08594 15.6797 8.24219 16.0078C8.50781 16.5703 8.91016 16.9844 9.44922 17.25C9.99609 17.5078 10.7148 17.6367 11.6055 17.6367C12.543 17.6367 13.3281 17.5195 13.9609 17.2852C14.5938 17.043 15.1094 16.6719 15.5078 16.1719C15.7891 15.8359 16.0156 15.4531 16.1875 15.0234C16.3672 14.5938 16.5312 14.0273 16.6797 13.3242L16.9492 13.3359L16.7969 18H2.81641V17.7305C3.26172 17.707 3.62109 17.6445 3.89453 17.543C4.17578 17.4414 4.42578 17.2773 4.64453 17.0508C4.88672 16.8008 5.05078 16.4844 5.13672 16.1016C5.23047 15.7109 5.27734 15.1172 5.27734 14.3203V5.68359C5.27734 4.88672 5.23047 4.29688 5.13672 3.91406C5.05078 3.52344 4.88672 3.20312 4.64453 2.95312C4.43359 2.72656 4.1875 2.5625 3.90625 2.46094C3.63281 2.35937 3.26953 2.29688 2.81641 2.27344V2.00391H15.4141ZM32.1836 1.92188L32.3242 7.16016H32.0547C31.9688 6.93359 31.9023 6.76172 31.8555 6.64453C31.582 5.89453 31.3594 5.33594 31.1875 4.96875C30.8828 4.3125 30.4414 3.71094 29.8633 3.16406C29.4258 2.75 28.9727 2.44922 28.5039 2.26172C28.0352 2.07422 27.5078 1.98047 26.9219 1.98047C26.0391 1.98047 25.2734 2.17187 24.625 2.55469C24.0547 2.89063 23.5234 3.375 23.0312 4.00781C22.5391 4.63281 22.1367 5.34766 21.8242 6.15234C21.3789 7.28516 21.1562 8.57422 21.1562 10.0195C21.1562 11.2461 21.3086 12.3516 21.6133 13.3359C21.918 14.3203 22.3633 15.1445 22.9492 15.8086C24.0273 17.043 25.457 17.6602 27.2383 17.6602C28.1289 17.6602 28.9297 17.5078 29.6406 17.2031C30.3516 16.8906 30.9023 16.4531 31.293 15.8906C31.7461 15.2422 32.0742 14.3672 32.2773 13.2656L32.5469 13.3125C32.3984 14.5469 32.0625 15.5273 31.5391 16.2539C31.0391 16.9492 30.3477 17.4805 29.4648 17.8477C28.5898 18.2148 27.5742 18.3984 26.418 18.3984C25.3398 18.3984 24.3086 18.2383 23.3242 17.918C21.7539 17.4023 20.5273 16.4727 19.6445 15.1289C18.7617 13.7773 18.3203 12.168 18.3203 10.3008C18.3203 8.87109 18.5781 7.55469 19.0938 6.35156C19.6094 5.14063 20.3281 4.16797 21.25 3.43359C21.9609 2.87109 22.8086 2.42578 23.793 2.09766C24.7852 1.76172 25.7773 1.59375 26.7695 1.59375C27.7148 1.59375 28.7148 1.77344 29.7695 2.13281L30.7305 2.44922C30.918 2.51953 31.082 2.55469 31.2227 2.55469C31.418 2.55469 31.5781 2.47266 31.7031 2.30859C31.7578 2.23047 31.8242 2.10156 31.9023 1.92188H32.1836ZM34.3984 10.1133C34.3984 8.80078 34.6797 7.58594 35.2422 6.46875C35.8047 5.34375 36.625 4.36328 37.7031 3.52734C38.5078 2.91016 39.375 2.4375 40.3047 2.10938C41.2344 1.77344 42.1719 1.60547 43.1172 1.60547C44.3203 1.60547 45.4844 1.87109 46.6094 2.40234C47.7344 2.92578 48.7188 3.66797 49.5625 4.62891C50.9375 6.19141 51.625 7.96875 51.625 9.96094C51.625 10.9609 51.4453 11.9258 51.0859 12.8555C50.7266 13.7852 50.2031 14.6328 49.5156 15.3984C48.6719 16.3516 47.6719 17.0898 46.5156 17.6133C45.3672 18.1367 44.1641 18.3984 42.9062 18.3984C41.6641 18.3984 40.4766 18.1445 39.3438 17.6367C38.2109 17.1289 37.2344 16.4102 36.4141 15.4805C35.7656 14.7539 35.2656 13.9297 34.9141 13.0078C34.5703 12.0781 34.3984 11.1133 34.3984 10.1133ZM37.2344 10.2891C37.2344 12.5547 37.8516 14.4648 39.0859 16.0195C39.6406 16.7148 40.2266 17.2227 40.8438 17.543C41.4688 17.8555 42.1875 18.0117 43 18.0117C43.8203 18.0117 44.5391 17.8555 45.1562 17.543C45.7812 17.2305 46.375 16.7227 46.9375 16.0195C48.1719 14.457 48.7891 12.5312 48.7891 10.2422C48.7891 8.98438 48.6172 7.79688 48.2734 6.67969C47.9375 5.55469 47.4609 4.60156 46.8438 3.82031C46.3438 3.17969 45.7852 2.71484 45.168 2.42578C44.5586 2.12891 43.8359 1.98047 43 1.98047C42.1719 1.98047 41.4531 2.125 40.8438 2.41406C40.2422 2.70313 39.6836 3.17188 39.168 3.82031C38.5508 4.59375 38.0742 5.54297 37.7383 6.66797C37.4023 7.79297 37.2344 9 37.2344 10.2891ZM64.3516 9.64453V14.3203C64.3516 15.1172 64.3945 15.707 64.4805 16.0898C64.5664 16.4648 64.7305 16.7812 64.9727 17.0391C65.1836 17.2656 65.4297 17.4336 65.7109 17.543C66 17.6445 66.3672 17.707 66.8125 17.7305V18H59.3242V17.7305C59.6992 17.7305 60.0547 17.6719 60.3906 17.5547C60.7266 17.4297 60.9883 17.2656 61.1758 17.0625C61.3945 16.8203 61.5508 16.4883 61.6445 16.0664C61.7383 15.6445 61.7852 15.0625 61.7852 14.3203V5.68359C61.7852 5.18359 61.7578 4.66406 61.7031 4.125C61.625 3.4375 61.2891 2.92578 60.6953 2.58984C60.3672 2.41016 59.9102 2.30469 59.3242 2.27344V2.00391H71.5703L71.9102 5.8125L71.6406 5.87109C71.4453 5.27734 71.2656 4.83203 71.1016 4.53516C70.7344 3.85547 70.2188 3.32812 69.5547 2.95312C69.1719 2.73437 68.7305 2.58203 68.2305 2.49609C67.7305 2.41016 67.043 2.36719 66.168 2.36719H64.3516V9.28125H64.8203C66.2031 9.28125 67.207 8.97266 67.832 8.35547C68.1055 8.08984 68.3125 7.77734 68.4531 7.41797C68.5938 7.05078 68.6875 6.57422 68.7344 5.98828L69.0039 6L68.9336 13.1016H68.6523C68.5664 12.3047 68.418 11.6914 68.207 11.2617C68.0039 10.8242 67.6914 10.4727 67.2695 10.207C66.957 10.0117 66.5703 9.87109 66.1094 9.78516C65.6562 9.69141 65.0703 9.64453 64.3516 9.64453ZM80.582 18.1992C80.4805 17.7305 80.4297 17.25 80.4297 16.7578C79.4531 17.7266 78.2969 18.2109 76.9609 18.2109C75.9844 18.2109 75.1992 17.9727 74.6055 17.4961C74.0273 17.0273 73.7383 16.3633 73.7383 15.5039V11.4258L73.7266 10.5352C73.7266 10.0039 73.6953 9.61719 73.6328 9.375C73.5703 9.13281 73.4531 8.92578 73.2812 8.75391C73.0547 8.54297 72.6484 8.38672 72.0625 8.28516V8.03906H75.4961V13.9805C75.4961 14.8164 75.5234 15.4375 75.5781 15.8438C75.6406 16.2422 75.75 16.5703 75.9062 16.8281C76.0781 17.0938 76.3242 17.3047 76.6445 17.4609C76.9648 17.6094 77.3242 17.6836 77.7227 17.6836C78.1602 17.6836 78.5703 17.5977 78.9531 17.4258C79.3359 17.2539 79.6367 17.0195 79.8555 16.7227C80.082 16.418 80.2305 16.0664 80.3008 15.668C80.3789 15.2695 80.418 14.6133 80.418 13.6992V11.4023L80.4062 10.5352C80.4062 10.0039 80.375 9.61719 80.3125 9.375C80.2578 9.13281 80.1406 8.92578 79.9609 8.75391C79.7422 8.54297 79.3359 8.38672 78.7422 8.28516V8.03906H82.1758V14.4023C82.1758 15.207 82.1953 15.7734 82.2344 16.1016C82.2812 16.4219 82.3672 16.6836 82.4922 16.8867C82.6328 17.1055 82.7969 17.2656 82.9844 17.3672C83.1719 17.4609 83.4414 17.5195 83.793 17.543V17.7773L80.582 18.1992ZM87.7656 9.66797C88.0469 9.17578 88.3633 8.80469 88.7148 8.55469C89.3633 8.09375 90.1016 7.86328 90.9297 7.86328C91.4375 7.86328 91.8242 7.97656 92.0898 8.20312C92.332 8.40625 92.4531 8.65625 92.4531 8.95312C92.4531 9.17188 92.3789 9.35156 92.2305 9.49219C92.0898 9.63281 91.9062 9.70312 91.6797 9.70312C91.4141 9.70312 91.1836 9.59375 90.9883 9.375L90.625 8.97656C90.3359 8.67188 89.9961 8.51953 89.6055 8.51953C89.0742 8.51953 88.6602 8.86328 88.3633 9.55078C88.0664 10.2383 87.918 11.1953 87.918 12.4219V14.6133L87.9297 15.5039C87.9297 16.0352 87.9609 16.4258 88.0234 16.6758C88.0859 16.918 88.207 17.1211 88.3867 17.2852C88.6055 17.4961 89.0078 17.6562 89.5938 17.7656V18H84.4258V17.7656C84.8945 17.7031 85.2305 17.6172 85.4336 17.5078C85.6367 17.3906 85.8008 17.1953 85.9258 16.9219C86.0117 16.7422 86.0703 16.4727 86.1016 16.1133C86.1406 15.7461 86.1602 15.2188 86.1602 14.5312V11.6367C86.1602 10.832 86.1406 10.2695 86.1016 9.94922C86.0625 9.62109 85.9766 9.35547 85.8438 9.15234C85.7109 8.93359 85.5508 8.77734 85.3633 8.68359C85.1758 8.58203 84.9062 8.51953 84.5547 8.49609V8.26172L87.5664 7.83984C87.6992 8.55078 87.7656 9.16016 87.7656 9.66797ZM96.0977 7.83984C96.207 8.29297 96.2617 8.71484 96.2617 9.10547V9.29297C97.2305 8.33984 98.3828 7.86328 99.7188 7.86328C100.719 7.86328 101.523 8.09766 102.133 8.56641C102.734 9.02734 103.035 9.68359 103.035 10.5352V15.5039C103.035 16.0352 103.066 16.4258 103.129 16.6758C103.191 16.918 103.312 17.1211 103.492 17.2852C103.711 17.4961 104.113 17.6562 104.699 17.7656V18H99.5312V17.7656C100 17.7031 100.336 17.6172 100.539 17.5078C100.742 17.3906 100.906 17.1953 101.031 16.9219C101.117 16.7422 101.176 16.4727 101.207 16.1133C101.246 15.7461 101.266 15.2227 101.266 14.543V12.0586C101.266 11.207 101.234 10.582 101.172 10.1836C101.117 9.78516 101.008 9.46484 100.844 9.22266C100.664 8.94922 100.406 8.73828 100.07 8.58984C99.7344 8.43359 99.3633 8.35547 98.957 8.35547C98.5195 8.35547 98.1094 8.44141 97.7266 8.61328C97.3516 8.78516 97.0547 9.01953 96.8359 9.31641C96.6016 9.62891 96.4453 9.98438 96.3672 10.3828C96.2969 10.7734 96.2617 11.4258 96.2617 12.3398V14.6367L96.2734 15.5039C96.2734 16.0352 96.3047 16.4258 96.3672 16.6758C96.4297 16.918 96.5508 17.1211 96.7305 17.2852C96.9492 17.4961 97.3516 17.6562 97.9375 17.7656V18H92.7695V17.7656C93.2383 17.7031 93.5742 17.6172 93.7773 17.5078C93.9805 17.3906 94.1445 17.1953 94.2695 16.9219C94.3555 16.7422 94.4141 16.4727 94.4453 16.1133C94.4844 15.7461 94.5039 15.2188 94.5039 14.5312V11.6367C94.5039 10.832 94.4844 10.2695 94.4453 9.94922C94.4062 9.62109 94.3203 9.35547 94.1875 9.15234C94.0547 8.93359 93.8945 8.77734 93.707 8.68359C93.5195 8.58203 93.25 8.51953 92.8984 8.49609V8.26172L96.0977 7.83984ZM105.391 8.26172L108.754 7.83984V14.6133L108.766 15.5039C108.766 16.0352 108.797 16.4258 108.859 16.6758C108.922 16.918 109.043 17.1211 109.223 17.2852C109.441 17.4961 109.844 17.6562 110.43 17.7656V18H105.262V17.7656C105.73 17.7031 106.066 17.6172 106.27 17.5078C106.473 17.3906 106.637 17.1953 106.762 16.9219C106.848 16.7422 106.906 16.4727 106.938 16.1133C106.977 15.7461 106.996 15.2188 106.996 14.5312V11.6367C106.996 10.832 106.977 10.2695 106.938 9.94922C106.898 9.62109 106.812 9.35547 106.68 9.15234C106.547 8.93359 106.387 8.77734 106.199 8.68359C106.012 8.58203 105.742 8.51953 105.391 8.49609V8.26172ZM107.828 3.65625C107.523 3.65625 107.27 3.55859 107.066 3.36328C106.871 3.16797 106.773 2.92187 106.773 2.625C106.773 2.33594 106.875 2.09375 107.078 1.89844C107.281 1.69531 107.531 1.59375 107.828 1.59375C108.125 1.59375 108.375 1.69531 108.578 1.89844C108.781 2.09375 108.883 2.33594 108.883 2.625C108.883 2.92187 108.781 3.16797 108.578 3.36328C108.383 3.55859 108.133 3.65625 107.828 3.65625ZM114.098 8.03906H117.086V8.48438H114.098V15.3047C114.098 16.125 114.238 16.7109 114.52 17.0625C114.668 17.2578 114.863 17.4102 115.105 17.5195C115.348 17.6289 115.609 17.6836 115.891 17.6836C116.242 17.6836 116.535 17.6133 116.77 17.4727C117.004 17.3242 117.262 17.0586 117.543 16.6758L117.719 16.8281C117.461 17.2969 117.098 17.6445 116.629 17.8711C116.168 18.0977 115.59 18.2109 114.895 18.2109C113.973 18.2109 113.301 18.0312 112.879 17.6719C112.652 17.4844 112.504 17.2617 112.434 17.0039C112.363 16.7383 112.328 16.2656 112.328 15.5859V8.48438H111.074V8.29688C111.582 8.13281 112.051 7.81641 112.48 7.34766C112.738 7.05859 112.945 6.77344 113.102 6.49219C113.258 6.20312 113.406 5.83203 113.547 5.37891L113.664 4.99219H114.098V8.03906ZM125.746 18.1992C125.645 17.7305 125.594 17.25 125.594 16.7578C124.617 17.7266 123.461 18.2109 122.125 18.2109C121.148 18.2109 120.363 17.9727 119.77 17.4961C119.191 17.0273 118.902 16.3633 118.902 15.5039V11.4258L118.891 10.5352C118.891 10.0039 118.859 9.61719 118.797 9.375C118.734 9.13281 118.617 8.92578 118.445 8.75391C118.219 8.54297 117.812 8.38672 117.227 8.28516V8.03906H120.66V13.9805C120.66 14.8164 120.688 15.4375 120.742 15.8438C120.805 16.2422 120.914 16.5703 121.07 16.8281C121.242 17.0938 121.488 17.3047 121.809 17.4609C122.129 17.6094 122.488 17.6836 122.887 17.6836C123.324 17.6836 123.734 17.5977 124.117 17.4258C124.5 17.2539 124.801 17.0195 125.02 16.7227C125.246 16.418 125.395 16.0664 125.465 15.668C125.543 15.2695 125.582 14.6133 125.582 13.6992V11.4023L125.57 10.5352C125.57 10.0039 125.539 9.61719 125.477 9.375C125.422 9.13281 125.305 8.92578 125.125 8.75391C124.906 8.54297 124.5 8.38672 123.906 8.28516V8.03906H127.34V14.4023C127.34 15.207 127.359 15.7734 127.398 16.1016C127.445 16.4219 127.531 16.6836 127.656 16.8867C127.797 17.1055 127.961 17.2656 128.148 17.3672C128.336 17.4609 128.605 17.5195 128.957 17.543V17.7773L125.746 18.1992ZM132.93 9.66797C133.211 9.17578 133.527 8.80469 133.879 8.55469C134.527 8.09375 135.266 7.86328 136.094 7.86328C136.602 7.86328 136.988 7.97656 137.254 8.20312C137.496 8.40625 137.617 8.65625 137.617 8.95312C137.617 9.17188 137.543 9.35156 137.395 9.49219C137.254 9.63281 137.07 9.70312 136.844 9.70312C136.578 9.70312 136.348 9.59375 136.152 9.375L135.789 8.97656C135.5 8.67188 135.16 8.51953 134.77 8.51953C134.238 8.51953 133.824 8.86328 133.527 9.55078C133.23 10.2383 133.082 11.1953 133.082 12.4219V14.6133L133.094 15.5039C133.094 16.0352 133.125 16.4258 133.188 16.6758C133.25 16.918 133.371 17.1211 133.551 17.2852C133.77 17.4961 134.172 17.6562 134.758 17.7656V18H129.59V17.7656C130.059 17.7031 130.395 17.6172 130.598 17.5078C130.801 17.3906 130.965 17.1953 131.09 16.9219C131.176 16.7422 131.234 16.4727 131.266 16.1133C131.305 15.7461 131.324 15.2188 131.324 14.5312V11.6367C131.324 10.832 131.305 10.2695 131.266 9.94922C131.227 9.62109 131.141 9.35547 131.008 9.15234C130.875 8.93359 130.715 8.77734 130.527 8.68359C130.34 8.58203 130.07 8.51953 129.719 8.49609V8.26172L132.73 7.83984C132.863 8.55078 132.93 9.16016 132.93 9.66797ZM140.406 11.625C140.375 12.0078 140.359 12.2852 140.359 12.457C140.359 13.1367 140.457 13.8008 140.652 14.4492C140.855 15.0977 141.129 15.6367 141.473 16.0664C141.824 16.5039 142.258 16.8477 142.773 17.0977C143.297 17.3477 143.844 17.4727 144.414 17.4727C144.836 17.4727 145.234 17.4023 145.609 17.2617C145.992 17.1211 146.309 16.9258 146.559 16.6758C146.84 16.4023 147.082 15.9648 147.285 15.3633L147.52 15.4453C147.316 16.3594 146.879 17.0508 146.207 17.5195C145.543 17.9805 144.656 18.2109 143.547 18.2109C142.586 18.2109 141.762 18.0586 141.074 17.7539C140.387 17.4492 139.805 16.9805 139.328 16.3477C138.664 15.4648 138.332 14.3789 138.332 13.0898C138.332 11.332 138.961 9.95312 140.219 8.95312C141.133 8.22656 142.176 7.86328 143.348 7.86328C143.973 7.86328 144.551 7.97656 145.082 8.20312C145.613 8.42188 146.062 8.74219 146.43 9.16406C147 9.82031 147.285 10.6406 147.285 11.625H140.406ZM145.539 11.168C145.484 10.3867 145.34 9.78516 145.105 9.36328C144.895 8.98047 144.613 8.67969 144.262 8.46094C143.91 8.23438 143.535 8.12109 143.137 8.12109C142.465 8.12109 141.875 8.41016 141.367 8.98828C140.867 9.56641 140.57 10.293 140.477 11.168H145.539Z" fill="#47525C"/>
</svg>
